<?xml version="1.0" encoding="iso-8859-1"?>
<!-- Modified SVG: Replaced blue shades with black shades -->
<svg height="800px" width="800px" version="1.1" id="Layer_1" xmlns="http://www.w3.org/2000/svg" xmlns:xlink="http://www.w3.org/1999/xlink" 
	 viewBox="0 0 512 512" xml:space="preserve">
<path style="fill:#000000;" d="M512,256.006C512,397.402,397.394,512.004,256.004,512C114.606,512.004,0,397.402,0,256.006
	C-0.007,114.61,114.606,0,256.004,0C397.394,0,512,114.614,512,256.006z"/>
<path style="fill:#333333;" d="M512,256.005c0-21.556-2.695-42.478-7.712-62.478c-0.109-0.105-0.21-0.217-0.32-0.32
	c-0.541-0.576-91.175-91.212-91.751-91.751c-6.811-7.254-16.413-11.856-27.124-11.856H126.908
	c-20.571,0-37.308,16.737-37.308,37.307v258.186c0,10.709,4.599,20.309,11.852,27.12c0.541,0.577,91.179,91.214,91.756,91.756
	c0.105,0.112,0.218,0.213,0.323,0.323c19.998,5.015,40.918,7.71,62.473,7.709C397.394,512.004,512,397.401,512,256.005z"/>
<g>
	<path style="fill:#FFFFFF;" d="M385.092,89.6H126.908c-20.571,0-37.308,16.737-37.308,37.308v258.186
		c0,20.57,16.737,37.307,37.308,37.307h258.186c20.57,0,37.307-16.737,37.307-37.308V126.908
		C422.4,106.337,405.663,89.6,385.092,89.6z M408.533,385.092c0,12.926-10.515,23.441-23.441,23.441H126.908
		c-12.926,0-23.441-10.515-23.441-23.441V126.908c0-12.926,10.515-23.441,23.441-23.441h258.186c12.925,0,23.44,10.515,23.44,23.441
		V385.092z"/>
	<path style="fill:#FFFFFF;" d="M218.167,186.667c-13.147,0-23.366,1.223-31.501,2.653v136.014h17.519v-55.552
		c3.552,0.817,7.721,1.024,12.311,1.024c16.27,0,31.079-5.106,40.05-15.317c6.675-6.941,10.22-16.541,10.22-28.999
		c0-12.253-4.38-22.258-11.68-28.793C246.953,190.342,234.437,186.667,218.167,186.667z M216.707,256.917
		c-5.011,0-9.181-0.206-12.522-1.223v-54.123c2.919-0.612,7.931-1.223,14.606-1.223c19.401,0,30.454,10.005,30.454,27.164
		C249.247,246.507,236.733,256.917,216.707,256.917z"/>
	<path style="fill:#FFFFFF;" d="M301.812,244.87h-0.625l-0.835-18.382h-15.435c0.421,8.576,0.835,18.588,0.835,29.205v69.639h17.526
		v-53.305c0-3.058,0.204-6.123,0.625-8.576c2.294-12.864,11.055-22.258,23.148-22.258c2.092,0,3.756,0,5.215,0.405v-16.747
		c-1.46-0.199-2.709-0.405-4.583-0.405C316.418,224.448,305.988,232.619,301.812,244.87z"/>
</g>
</svg>
